<?xml version="1.0" encoding="UTF-8"?>
<svg width="14px" height="14px" viewBox="0 0 14 14" version="1.1" xmlns="http://www.w3.org/2000/svg" xmlns:xlink="http://www.w3.org/1999/xlink">
    <title>icon / 16-cont / info / device-16</title>
    <defs>
        <path d="M3.33333333,0 L3.333,0.666 L4.666,0.666 L4.66666667,0 L6,0 L6,0.666 L7.333,0.666 L7.33333333,0 L8.66666667,0 L8.666,0.666 L10,0.666 L10,0 L11.3333333,0 L11.3337983,0.780634885 C11.9016997,0.981517973 12.3518154,1.43163367 12.5526984,1.99953502 L13.3333333,2 L13.3333333,3.33333333 L12.666,3.333 L12.666,4.666 L13.3333333,4.66666667 L13.3333333,6 L12.666,6 L12.666,7.333 L13.3333333,7.33333333 L13.3333333,8.66666667 L12.666,8.666 L12.666,10 L13.3333333,10 L13.3333333,11.3333333 L12.666,11.333 L12.6666667,12.6666667 L11.333,12.666 L11.3333333,13.3333333 L10,13.3333333 L10,12.666 L8.666,12.666 L8.66666667,13.3333333 L7.33333333,13.3333333 L7.333,12.666 L6,12.666 L6,13.3333333 L4.66666667,13.3333333 L4.666,12.666 L3.333,12.666 L3.33333333,13.3333333 L2,13.3333333 L1.99953502,12.5526984 C1.43163367,12.3518154 0.981517973,11.9016997 0.780634885,11.3337983 L0,11.3333333 L0,10 L0.666,10 L0.666,8.666 L0,8.66666667 L0,7.33333333 L0.666,7.333 L0.666,6 L0,6 L0,4.66666667 L0.666,4.666 L0.666,3.333 L0,3.33333333 L0,2 L0.666,2 L0.666666667,0.666666667 L2,0.666 L2,0 L3.33333333,0 Z M10.3333333,2 L2,2 L2,10.3333333 C2,10.8461692 2.38604019,11.2688405 2.88337887,11.3266056 L3,11.3333333 L11.3333333,11.3333333 L11.3333333,3 C11.3333333,2.44771525 10.8856181,2 10.3333333,2 Z M10,7.33333333 L10,10 L7.33333333,10 L7.33333333,7.33333333 L10,7.33333333 Z M6,7.33333333 L6,10 L3.33333333,10 L3.33333333,7.33333333 L6,7.33333333 Z M6,3.33333333 L6,6 L3.33333333,6 L3.33333333,3.33333333 L6,3.33333333 Z M10,3.33333333 L10,6 L7.33333333,6 L7.33333333,3.33333333 L10,3.33333333 Z" id="path-1"></path>
    </defs>
    <g id="Page-1" stroke="none" stroke-width="1" fill="none" fill-rule="evenodd">
        <g id="38-Device-manager-/-Admin-/-Floor" transform="translate(-214.000000, -647.000000)">
            <g id="Group-14" transform="translate(124.000000, 392.000000)">
                <g id="Group" transform="translate(89.000000, 254.000000)">
                    <g id="Colors/Greys/Dark-Mode/#7E7E7E" transform="translate(1.333333, 1.333333)">
                        <mask id="mask-2" fill="white">
                            <use xlink:href="#path-1"></use>
                        </mask>
                        <use id="Mask" fill="#7E7E7E" xlink:href="#path-1"></use>
                        <g id="Group" mask="url(#mask-2)">
                            <g transform="translate(-1.333333, -1.333333)" id="Colors/Greys/Dark-Mode/#7E7E7E">
                                <rect id="Dark-Theme-/-Grayscale-/-Filled-/-$base-gray" fill="#7E7E7E" x="0" y="0" width="16" height="16"></rect>
                            </g>
                        </g>
                    </g>
                </g>
            </g>
        </g>
    </g>
</svg>