<?xml version="1.0" encoding="UTF-8"?>
<svg width="14px" height="14px" viewBox="0 0 14 14" version="1.1" xmlns="http://www.w3.org/2000/svg" xmlns:xlink="http://www.w3.org/1999/xlink">
    <title>icon / 16-cont / info / floor-16</title>
    <g id="Page-1" stroke="none" stroke-width="1" fill="none" fill-rule="evenodd">
        <g id="38-Device-manager-/-Admin-/-Floor" transform="translate(-166.000000, -447.000000)">
            <g id="Group-14" transform="translate(124.000000, 392.000000)">
                <g id="Group-8" transform="translate(17.000000, 44.000000)">
                    <g id="Group-4" transform="translate(24.000000, 10.000000)">
                        <path d="M10,3.33333333 L5.99966667,3.33333333 L6,2.66666667 L4.66666667,2.66666667 L4.66666667,5.33333333 L6,5.33333333 L5.99966667,4.66633333 L10,4.66666667 L9.99966667,6.66633333 L9.33333333,6.66666667 L9.33333333,8 L12,8 L12,6.66666667 L11.3326667,6.66633333 L11.3333333,1.33333333 L13.6666667,1.33333333 C14.2189514,1.33333333 14.6666667,1.78104858 14.6666667,2.33333333 L14.6666667,10 L4,10 L4,9.33333333 L2.66666667,9.33333333 L2.66666667,12 L4,12 L4,11.3333333 L8.66566667,11.3333333 L8.66666667,14.6666667 L2.33333333,14.6666667 C1.78104858,14.6666667 1.33333333,14.2189514 1.33333333,13.6666667 L1.33333333,2.33333333 C1.33333333,1.78104858 1.78104858,1.33333333 2.33333333,1.33333333 L10,1.33333333 L10,3.33333333 Z M14.6666667,11.3333333 L14.6666667,13.6666667 C14.6666667,14.2189514 14.2189514,14.6666667 13.6666667,14.6666667 L10,14.6666667 L9.99966667,11.3333333 L14.6666667,11.3333333 Z" id="Combined-Shape" fill="#7E7E7E"></path>
                        <rect id="Rectangle" fill="#D8D8D8" opacity="0" x="0" y="0" width="16" height="16"></rect>
                    </g>
                </g>
            </g>
        </g>
    </g>
</svg>