<?xml version="1.0" encoding="UTF-8"?>
<svg width="16px" height="12px" viewBox="0 0 16 12" version="1.1" xmlns="http://www.w3.org/2000/svg" xmlns:xlink="http://www.w3.org/1999/xlink">
    <title>icon / 16-cont / info / robot-16</title>
    <defs>
        <filter id="filter-1">
            <feColorMatrix in="SourceGraphic" type="matrix" values="0 0 0 0 0.494118 0 0 0 0 0.494118 0 0 0 0 0.494118 0 0 0 1.000000 0"></feColorMatrix>
        </filter>
    </defs>
    <g id="Page-1" stroke="none" stroke-width="1" fill="none" fill-rule="evenodd">
        <g id="38-Device-manager-/-Admin-/-Floor" transform="translate(-140.000000, -328.000000)">
            <g id="Group-9" transform="translate(140.000000, 326.000000)">
                <g filter="url(#filter-1)" id="Group">
                    <g transform="translate(0.666667, 2.666667)">
                        <path d="M14.5902778,1.7254902 C14.5902778,0.815686275 13.8569444,0.062745098 12.9708333,0.062745098 C12.0847222,0.062745098 11.3513889,0.8 11.3513889,1.7254902 C11.3513889,2.43137255 11.7944444,3.04313725 12.4055556,3.27843137 L12.4055556,5.22352941 L9.625,5.99215686 L9.625,10.6039216 L10.7402778,10.6039216 L10.7402778,6.88627451 L13.5208333,6.11764706 L13.5208333,3.27843137 C14.1472222,3.04313725 14.5902778,2.43137255 14.5902778,1.7254902 Z" id="Path" fill="#000000" fill-rule="nonzero"></path>
                        <path d="M2.26111111,3.27843137 C2.87222222,3.04313725 3.31527778,2.43137255 3.31527778,1.7254902 C3.31527778,0.815686275 2.58194444,0.062745098 1.69583333,0.062745098 C0.809722222,0.062745098 0.0763888889,0.8 0.0763888889,1.7254902 C0.0763888889,2.43137255 0.519444444,3.04313725 1.13055556,3.27843137 L1.13055556,6.11764706 L3.91111111,6.88627451 L3.91111111,10.6196078 L5.04166667,10.6196078 L5.04166667,5.99215686 L2.26111111,5.22352941 L2.26111111,3.27843137 Z" id="Path" fill="#000000" fill-rule="nonzero"></path>
                        <path d="M7.33333333,0.062745098 C6.44722222,0.062745098 5.71388889,0.815686275 5.71388889,1.7254902 C5.71388889,2.43137255 6.15694444,3.04313725 6.76805556,3.27843137 L6.76805556,10.6196078 L7.88333333,10.6196078 L7.88333333,3.27843137 C8.49444444,3.04313725 8.9375,2.43137255 8.9375,1.7254902 C8.95277778,0.8 8.21944444,0.062745098 7.33333333,0.062745098 Z" id="Path" fill="#000000" fill-rule="nonzero"></path>
                    </g>
                </g>
                <rect id="Rectangle" fill="#D8D8D8" opacity="0" x="0" y="0" width="16" height="16"></rect>
            </g>
        </g>
    </g>
</svg>