<?xml version="1.0" encoding="UTF-8"?>
<svg width="18px" height="14px" viewBox="0 0 18 14" version="1.1" xmlns="http://www.w3.org/2000/svg" xmlns:xlink="http://www.w3.org/1999/xlink">
    <!-- Generator: Sketch 60.1 (88133) - https://sketch.com -->
    <title>speed</title>
    <desc>Created with Sketch.</desc>
    <g id="CamUI" stroke="none" stroke-width="1" fill="none" fill-rule="evenodd">
        <g id="01_Yezhik-/-01_BasePanels-/-01_01_Default" transform="translate(-43.000000, -45.000000)">
            <g id="Group-5" transform="translate(32.000000, 32.000000)">
                <g id="speed" transform="translate(8.000000, 8.000000)">
                    <rect id="Rectangle" x="0" y="0" width="24" height="24"></rect>
                    <g id="Group-2" transform="translate(3.000000, 5.000000)" fill="#FFFFFF" fill-rule="nonzero">
                        <path d="M14.7847982,3.21520974 C14.5351208,2.96556982 14.1432272,2.92875758 13.8513736,3.12762452 C12.7519259,3.87702189 7.23727353,7.64535395 6.64460197,8.237987 C5.78513268,9.09749046 5.78513268,10.4959149 6.64460197,11.3554183 C7.07433661,11.785115 7.6388662,12 8.20332231,12 C8.76777841,12 9.33227126,11.785115 9.76204264,11.3554183 C10.3546775,10.7627485 14.1229841,5.24811267 14.8724204,4.14866833 C15.0712145,3.85685231 15.0344389,3.46492314 14.7847982,3.21520974 Z M8.72284677,10.3162623 C8.43639374,10.602788 7.97021413,10.602788 7.68376111,10.3162623 C7.39727134,10.0298101 7.3972346,9.56377889 7.68361415,9.27728998 C7.91389343,9.04973006 9.47959416,7.93309198 11.4059604,6.59407414 C10.0669753,8.52043464 8.95033389,10.0860572 8.72284677,10.3162623 Z" id="Shape"></path>
                        <path d="M3.21443858,12.0057101 L2.35394169,12.419999 C1.72430472,11.3109403 1.39408163,10.0730612 1.39408163,8.80587517 C1.39408163,7.8774401 1.56754024,6.9882187 1.88410133,6.16813718 L2.87010041,6.63491736 C2.96733761,6.68094182 3.06997687,6.70275012 3.17108264,6.70275012 C3.4308349,6.70275012 3.68020125,6.5587947 3.80005742,6.3121614 C3.96651077,5.96959221 3.82013219,5.55863991 3.47300587,5.3943209 L2.49951866,4.93345717 C3.70947696,2.98584524 5.8029345,1.62798617 8.22511649,1.40749531 L8.22511649,2.44222004 C8.22511649,2.8221798 8.53718166,3.13017904 8.9221573,3.13017904 C9.30713294,3.13017904 9.61919812,2.8221798 9.61919812,2.44222004 L9.61919812,1.40697934 C10.4496525,1.4815885 11.2532012,1.69031526 12.0160078,2.030167 C12.3667936,2.18650568 12.7796857,2.03243727 12.9380883,1.6862219 C13.0964908,1.33990334 12.9404582,0.932459625 12.5895679,0.776120943 C11.4336651,0.261149236 10.1997634,-5.68434189e-14 8.92212245,-5.68434189e-14 C6.5389399,-5.68434189e-14 4.29840675,0.915948609 2.61320602,2.57915828 C0.928074995,4.24240235 0,6.45374336 0,8.80587517 C0,10.5440036 0.522710908,12.2344564 1.51163757,13.6943398 C1.64484207,13.8909241 1.86507211,14 2.09154067,14 C2.1944936,14 2.29877091,13.9774693 2.39673999,13.9303098 L3.82567367,13.2423508 C4.17168473,13.0757615 4.31534484,12.6639148 4.14655641,12.322412 C3.97776797,11.9809435 3.56044964,11.8391896 3.21443858,12.0057101 Z" id="Path"></path>
                        <path d="M17.0752872,5.39548981 C16.889066,5.0574279 16.4037188,4.90698413 15.9909914,5.05967784 C15.5784278,5.21230438 15.3949524,5.61007366 15.5812146,5.94813557 C16.0984866,6.88699869 16.360729,7.88996831 16.360729,8.92917204 C16.360729,10.1681167 15.9711562,11.378551 15.2286074,12.4625185 L14.1722202,12.0503093 C13.7635909,11.8908657 13.2744734,12.0330149 13.07981,12.3679538 C12.8851875,12.7028255 13.0587453,13.1036171 13.4674566,13.2630942 L15.1886912,13.9347182 C15.3019238,13.9788774 15.4219594,14 15.5406426,14 C15.8070242,14 16.066029,13.8933797 16.2224565,13.7015975 C17.3853553,12.2763443 18,10.6260299 18,8.92917204 C18,7.69811893 17.6888664,6.50921022 17.0752872,5.39548981 Z" id="Path"></path>
                    </g>
                </g>
            </g>
        </g>
    </g>
</svg>