<?xml version="1.0" encoding="UTF-8"?>
<svg width="8px" height="12px" viewBox="0 0 8 12" version="1.1" xmlns="http://www.w3.org/2000/svg" xmlns:xlink="http://www.w3.org/1999/xlink">
    <!-- Generator: Sketch 60.1 (88133) - https://sketch.com -->
    <title>voltage</title>
    <desc>Created with Sketch.</desc>
    <g id="CamUI" stroke="none" stroke-width="1" fill="none" fill-rule="evenodd">
        <g id="01_Yezhik-/-01_BasePanels-/-01_01_Default" transform="translate(-48.000000, -129.000000)">
            <g id="Group-4" transform="translate(32.000000, 115.000000)">
                <g id="voltage" transform="translate(8.000000, 8.000000)">
                    <rect id="Rectangle" x="0" y="0" width="24" height="24"></rect>
                    <path d="M15.7385615,10.5422769 L14.0769909,10.5422769 L12.2492631,10.5422769 C12.1121076,10.5422769 12.0000275,10.4240116 12.0000275,10.2797465 L12.0000275,7.99097256 L12.0000275,6.46045664 C12.0000275,5.89912969 11.7911914,5.84313033 11.5357503,6.33592472 L9.92306422,9.44895598 C8.74392318,11.7246634 8.11787915,12.9329163 8.04493214,13.0737147 C7.93551164,13.2849123 8.03290095,13.4578437 8.26149356,13.4578437 L9.92293758,13.4578437 C10.9614192,13.4578437 11.7506653,13.4578437 11.7506653,13.4578437 C11.8876942,13.4578437 12.0000275,13.5758424 12.0000275,13.7201074 L12.0000275,16.009148 L12.0000275,17.5396639 C12.0000275,18.1008576 12.208737,18.1568569 12.4640515,17.6640625 L14.0769909,14.5511646 L15.9551229,10.9261392 C16.0644168,10.7149416 15.9671541,10.5422769 15.7385615,10.5422769 Z" id="Path" fill="#FFFFFF" fill-rule="nonzero"></path>
                </g>
            </g>
        </g>
    </g>
</svg>